<?xml version="1.0" encoding="iso-8859-1"?>
<!-- Generator: Adobe Illustrator 22.0.0, SVG Export Plug-In . SVG Version: 6.00 Build 0)  -->
<svg xmlns="http://www.w3.org/2000/svg" xmlns:xlink="http://www.w3.org/1999/xlink" version="1.1" x="0px" y="0px" viewBox="0 0 32 58" style="enable-background:new 0 0 32 58;" xml:space="preserve" width="512" height="512">
<g id="_x31_5-Love">
	<polygon style="fill:#EBBA16;" points="0,52 32,52 32,37 32,11 32,6 0,6  "/>
	<path style="fill:#EAEFF0;" d="M32,8H0V2.547C0,1.14,1.14,0,2.547,0h26.907C30.86,0,32,1.14,32,2.547V8z"/>
	<path style="fill:#EAEFF0;" d="M29.453,58H2.547C1.14,58,0,56.86,0,55.453V50h32v5.453C32,56.86,30.86,58,29.453,58z"/>
	<circle style="fill:#B8BEC3;" cx="16" cy="54" r="4"/>
	<path style="fill:#B8BEC3;" d="M16,5h-6C9.448,5,9,4.553,9,4s0.448-1,1-1h6c0.552,0,1,0.447,1,1S16.552,5,16,5z"/>
	<path style="fill:#B8BEC3;" d="M22,5h-1c-0.552,0-1-0.447-1-1s0.448-1,1-1h1c0.552,0,1,0.447,1,1S22.552,5,22,5z"/>
	<path id="Stroke-796_2_" style="fill:#DD352E;" d="M16,24c0.765-2.09,2.39-4,4.421-4c1.711,0,3.117,0.971,4.261,2.286   c1.521,1.748,2.199,5.763-0.621,8.788C22.631,32.609,16,40,16,40s-6.619-7.391-8.049-8.926c-2.819-3.025-2.175-7.04-0.621-8.788   C8.488,20.984,9.88,20,11.591,20C13.623,20,15.235,21.91,16,24L16,24z"/>
	<path style="fill:#DC691D;" d="M4,17c-0.552,0-1-0.448-1-1v-4c0-0.552,0.448-1,1-1h4c0.552,0,1,0.448,1,1s-0.448,1-1,1H5v3   C5,16.552,4.552,17,4,17z"/>
	<path style="fill:#DC691D;" d="M28,47h-4c-0.552,0-1-0.448-1-1s0.448-1,1-1h3v-3c0-0.552,0.448-1,1-1s1,0.448,1,1v4   C29,46.552,28.552,47,28,47z"/>
</g>

</svg>
