<svg xmlns="http://www.w3.org/2000/svg" viewBox="0 0 32 58" width="512" height="512"><path fill="#ebba16" d="M0 52h32V6H0z"/><path d="M32 8H0V2.547A2.547 2.547 0 012.547 0h26.907A2.546 2.546 0 0132 2.547V8zm-2.547 50H2.547A2.547 2.547 0 010 55.453V50h32v5.453A2.547 2.547 0 0129.453 58z" fill="#eaeff0"/><circle cx="16" cy="54" r="4" fill="#b8bec3"/><path d="M16 5h-6a1 1 0 110-2h6a1 1 0 110 2zm6 0h-1a1 1 0 110-2h1a1 1 0 110 2z" fill="#b8bec3"/><path d="M16 24c.765-2.09 2.39-4 4.421-4 1.711 0 3.117.971 4.261 2.286 1.521 1.748 2.199 5.763-.621 8.788C22.631 32.609 16 40 16 40s-6.619-7.391-8.049-8.926c-2.819-3.025-2.175-7.04-.621-8.788C8.488 20.984 9.88 20 11.591 20c2.032 0 3.644 1.91 4.409 4z" fill="#dd352e"/><path d="M4 17a1 1 0 01-1-1v-4a1 1 0 011-1h4a1 1 0 010 2H5v3a1 1 0 01-1 1zm24 30h-4a1 1 0 010-2h3v-3a1 1 0 012 0v4a1 1 0 01-1 1z" fill="#dc691d"/></svg>